<?xml version="1.0" encoding="UTF-8" standalone="no"?>
<svg
   height="24"
   viewBox="0 0 24 24"
   width="24"
   version="1.1"
   id="svg4566"
   sodipodi:docname="h3grid.svg"
   inkscape:version="1.2.1 (9c6d41e410, 2022-07-14)"
   inkscape:export-xdpi="96"
   inkscape:export-ydpi="96"
   xml:space="preserve"
   inkscape:export-filename="h3grid.png"
   xmlns:inkscape="http://www.inkscape.org/namespaces/inkscape"
   xmlns:sodipodi="http://sodipodi.sourceforge.net/DTD/sodipodi-0.dtd"
   xmlns="http://www.w3.org/2000/svg"
   xmlns:svg="http://www.w3.org/2000/svg"
   xmlns:rdf="http://www.w3.org/1999/02/22-rdf-syntax-ns#"
   xmlns:cc="http://creativecommons.org/ns#"
   xmlns:dc="http://purl.org/dc/elements/1.1/"><metadata
     id="metadata4572"><rdf:RDF><cc:Work
         rdf:about=""><dc:format>image/svg+xml</dc:format><dc:type
           rdf:resource="http://purl.org/dc/dcmitype/StillImage" /></cc:Work></rdf:RDF></metadata><defs
     id="defs4570"><marker
       id="DistanceX"
       orient="auto"
       refX="0.0"
       refY="0.0"
       style="overflow:visible"><path
         d="M 3,-3 L -3,3 M 0,-5 L  0,5"
         style="stroke:#000000; stroke-width:0.5"
         id="path95" /></marker><pattern
       id="Hatch"
       patternUnits="userSpaceOnUse"
       width="8"
       height="8"
       x="0"
       y="0"><path
         d="M8 4 l-4,4"
         stroke="#000000"
         stroke-width="0.25"
         linecap="square"
         id="path98" /><path
         d="M6 2 l-4,4"
         stroke="#000000"
         stroke-width="0.25"
         linecap="square"
         id="path100" /><path
         d="M4 0 l-4,4"
         stroke="#000000"
         stroke-width="0.25"
         linecap="square"
         id="path102" /></pattern><symbol
       id="*Model_Space" /><symbol
       id="*Paper_Space" /></defs><sodipodi:namedview
     pagecolor="#ffffff"
     bordercolor="#666666"
     borderopacity="1"
     objecttolerance="10"
     gridtolerance="10"
     guidetolerance="10"
     inkscape:pageopacity="0"
     inkscape:pageshadow="2"
     inkscape:window-width="1920"
     inkscape:window-height="1017"
     id="namedview4568"
     showgrid="false"
     inkscape:zoom="33.916667"
     inkscape:cx="12"
     inkscape:cy="12"
     inkscape:window-x="-8"
     inkscape:window-y="-8"
     inkscape:window-maximized="1"
     inkscape:current-layer="g4564"
     inkscape:pagecheckerboard="0"
     inkscape:showpageshadow="2"
     inkscape:deskcolor="#d1d1d1" /><linearGradient
     gradientUnits="userSpaceOnUse"
     x1="-10"
     x2="-10"
     y1="15"
     y2="21"
     id="linearGradient4548"><stop
       offset="0"
       stop-color="#555753"
       id="stop4544" /><stop
       offset="1"
       stop-color="#555753"
       stop-opacity="0"
       id="stop4546" /></linearGradient><g
     transform="translate(0,-8)"
     id="g4564"><g
       id="g6695"
       transform="translate(0.17690418,1.7690418)"><path
         d="m 9.0781344,14.576569 -2.5545723,1.459756 0.7298778,2.554572 3.2844501,0.729878 2.554572,-1.459756 -0.729878,-2.554572 z"
         style="fill:none;stroke:#000000;stroke-width:1;stroke-dasharray:none;stroke-opacity:1"
         id="path109" /><path
         d="m 7.3848179,18.598196 -2.5545722,1.459755 0.7298778,2.554572 3.28445,0.729878 2.5545725,-1.459755 -0.729878,-2.554573 z"
         style="fill:none;stroke:#000000;stroke-width:1;stroke-dasharray:none;stroke-opacity:1"
         id="path111" /><path
         d="m 13.201944,17.733291 -2.554573,1.459755 0.729878,2.554572 3.28445,0.729878 2.554572,-1.459755 -0.729877,-2.554573 z"
         style="fill:none;stroke:#000000;stroke-width:1;stroke-dasharray:none;stroke-opacity:1"
         id="path113" /><path
         d="m 16.588577,9.6936864 -2.554573,1.4597556 0.729878,2.554573 3.28445,0.729877 2.554572,-1.459755 -0.729877,-2.554573 z"
         style="fill:none;stroke:#000000;stroke-width:1;stroke-dasharray:none;stroke-opacity:1"
         id="path115" /><path
         d="m 19.01542,16.872035 -2.554572,1.459755 0.729878,2.554573 3.28445,0.729877 2.554572,-1.459755 -0.729878,-2.554572 z"
         style="fill:none;stroke:#000000;stroke-width:1;stroke-dasharray:none;stroke-opacity:1"
         id="path117" /><path
         d="m 4.9579743,11.423497 -2.5545722,1.459756 0.7298777,2.554572 3.2844501,0.729878 2.5545722,-1.459756 -0.7298778,-2.554572 z"
         style="fill:none;stroke:#000000;stroke-width:1;stroke-dasharray:none;stroke-opacity:1"
         id="path119" /><path
         d="M 5.6915015,22.619822 3.1369292,24.079578 3.866807,26.63415 7.151257,27.364028 9.7058293,25.904272 8.9759515,23.3497 Z"
         style="fill:none;stroke:#000000;stroke-width:1;stroke-dasharray:none;stroke-opacity:1"
         id="path121" /><path
         d="m 11.504978,21.754917 -2.5545722,1.459756 0.7298777,2.554572 3.2844495,0.729878 2.554573,-1.459756 -0.729878,-2.554572 z"
         style="fill:none;stroke:#000000;stroke-width:1;stroke-dasharray:none;stroke-opacity:1"
         id="path123" /><path
         d="m 17.322104,20.890012 -2.554573,1.459755 0.729878,2.554573 3.28445,0.729877 2.554572,-1.459755 -0.729877,-2.554572 z"
         style="fill:none;stroke:#000000;stroke-width:1;stroke-dasharray:none;stroke-opacity:1"
         id="path125" /><path
         d="m 10.771451,10.558592 -2.5545724,1.459755 0.7298778,2.554573 3.2844496,0.729878 2.554572,-1.459756 -0.729877,-2.554572 z"
         style="fill:none;stroke:#000000;stroke-width:1;stroke-dasharray:none;stroke-opacity:1"
         id="path127" /><path
         d="m 14.89526,13.715313 -2.554572,1.459756 0.729878,2.554572 3.28445,0.729878 2.554572,-1.459756 -0.729878,-2.554572 z"
         style="fill:none;stroke:#000000;stroke-width:1;stroke-dasharray:none;stroke-opacity:1"
         id="path129" /><path
         d="M 3.2646578,15.441474 0.71008565,16.90123 1.4399634,19.455802 4.7244134,20.18568 7.2789856,18.725924 6.5491079,16.171352 Z"
         style="fill:none;stroke:#000000;stroke-width:1;stroke-dasharray:none;stroke-opacity:1"
         id="path131" /></g></g></svg>
