<svg enable-background="new 0 0 24 24" height="24" viewBox="0 0 24 24" width="24" xmlns="http://www.w3.org/2000/svg" xmlns:xlink="http://www.w3.org/1999/xlink"><linearGradient id="a" gradientUnits="userSpaceOnUse" x1="11.01429689328" x2="20.31769964259" y1="3.46900372207" y2="12.87320726961"><stop offset="0" stop-color="#d01d17"/><stop offset="1" stop-color="#ff9595"/></linearGradient><path d="m10.534585 10.530486h12.923078v12.923077h-12.923078z" fill="#fce94f" stroke="#c4a000" stroke-linecap="round" stroke-width="1.07692"/><path d="m6.5384614 6.538462h12.9230776v12.923077h-12.9230776z" fill="#fce94f" stroke="#c4a000" stroke-linecap="round" stroke-width="1.07692"/><g stroke="#ba0b0b" transform="translate(-.830655 .029666)"><path d="m12.553639 10.027612 8.49079-9.28863077c1.244279-1.31234098 3.605484.85589997 2.32601 2.20537087l-8.823357 8.9732989c3.85041 3.650709 2.835459 3.996384 1.411816 5.497905l-8.9704955-8.5052163c1.4238313-1.5017349 1.7759779-2.4754601 5.5652365 1.1172723z" fill="url(#a)" fill-rule="evenodd" stroke-width=".515964"/><g fill="none"><path d="m6.9822673 8.9045089-5.6800427 5.9907731 8.9861464 8.520057 5.680043-5.990754z" stroke-width=".515964"/><g stroke-width=".18358" transform="matrix(1.9501025 0 0 1.9501025 -1.777366 -552.17853)"><path d="m4.9764608 288.36233-2.7298623 2.8792"/><path d="m5.5524655 288.90846-2.7298622 2.8792"/><path d="m6.1284703 289.45459-2.7298622 2.8792"/><path d="m6.704475 290.00072-2.7298622 2.8792"/><path d="m7.2804797 290.54685-2.7298622 2.8792"/><path d="m7.8569042 291.09254-2.7306467 2.88002"/><path d="m8.4332737 291.63828-2.73064 2.88002"/></g></g></g></svg>