<svg height="24" viewBox="0 0 24 24" width="24" xmlns="http://www.w3.org/2000/svg"><path d="m8.0956555 7.64257-3.7110401 2.14257-3.71104012-2.14257.00000002-4.28514 3.7110401-2.14257 3.7110402 2.14257z" fill="#ff1010" opacity=".807" transform="matrix(.93263344 0 0 .93263344 1.1223 .774149)"/><path d="m8.0956555 7.64257-3.7110401 2.14257-3.71104012-2.14257.00000002-4.28514 3.7110401-2.14257 3.7110402 2.14257z" fill="#ff8f8f" opacity=".807" transform="matrix(.93263344 0 0 .93263344 8.04438 .774149)"/><path d="m8.0956555 7.64257-3.7110401 2.14257-3.71104012-2.14257.00000002-4.28514 3.7110401-2.14257 3.7110402 2.14257z" fill="#fdd" opacity=".807" transform="matrix(.93263344 0 0 .93263344 14.96646 .774149)"/><path d="m8.0956555 7.64257-3.7110401 2.14257-3.71104012-2.14257.00000002-4.28514 3.7110401-2.14257 3.7110402 2.14257z" fill="#ff2c2c" opacity=".807" transform="matrix(.93263344 0 0 .93263344 4.58334 6.768846)"/><path d="m8.0956555 7.64257-3.7110401 2.14257-3.71104012-2.14257.00000002-4.28514 3.7110401-2.14257 3.7110402 2.14257z" fill="#f66" opacity=".807" transform="matrix(.93263344 0 0 .93263344 11.50542 6.768846)"/><path d="m8.0956555 7.64257-3.7110401 2.14257-3.71104012-2.14257.00000002-4.28514 3.7110401-2.14257 3.7110402 2.14257z" fill="#ffd8d8" opacity=".807" transform="matrix(.93263344 0 0 .93263344 1.122299 12.763543)"/><path d="m8.0956555 7.64257-3.7110401 2.14257-3.71104012-2.14257.00000002-4.28514 3.7110401-2.14257 3.7110402 2.14257z" fill="#ff4e4e" opacity=".807" transform="matrix(.93263344 0 0 .93263344 8.04438 12.763543)"/><path d="m8.0956555 7.64257-3.7110401 2.14257-3.71104012-2.14257.00000002-4.28514 3.7110401-2.14257 3.7110402 2.14257z" fill="#f00" opacity=".807" transform="matrix(.93263344 0 0 .93263344 14.96646 12.763543)"/></svg>