<svg height="24" viewBox="0 0 24 24" width="24" xmlns="http://www.w3.org/2000/svg"><g stroke="#000" stroke-width=".536116"><path d="m8.0956555 7.64257-3.7110401 2.14257-3.71104012-2.14257.00000002-4.28514 3.7110401-2.14257 3.7110402 2.14257z" fill="#ffb3b3" stroke-linecap="round" transform="matrix(.93263344 0 0 .93263344 4.448628 .880738)"/><path d="m8.0956555 7.64257-3.7110401 2.14257-3.71104012-2.14257.00000002-4.28514 3.7110401-2.14257 3.7110402 2.14257z" fill="#ffcdcc" stroke-linecap="square" transform="matrix(.93263344 0 0 .93263344 11.370709 .880738)"/><path d="m8.0956555 7.64257-3.7110401 2.14257-3.71104012-2.14257.00000002-4.28514 3.7110401-2.14257 3.7110402 2.14257z" fill="#ffcdcd" stroke-linecap="round" transform="matrix(.93263344 0 0 .93263344 .987588 6.875435)"/><path d="m8.0956555 7.64257-3.7110401 2.14257-3.71104012-2.14257.00000002-4.28514 3.7110401-2.14257 3.7110402 2.14257z" fill="#ffd3d3" stroke-linecap="round" transform="matrix(.93263344 0 0 .93263344 14.831749 6.875435)"/><path d="m8.0956555 7.64257-3.7110401 2.14257-3.71104012-2.14257.00000002-4.28514 3.7110401-2.14257 3.7110402 2.14257z" fill="#fee" stroke-linecap="round" transform="matrix(.93263344 0 0 .93263344 4.448628 12.870132)"/><path d="m8.0956555 7.64257-3.7110401 2.14257-3.71104012-2.14257.00000002-4.28514 3.7110401-2.14257 3.7110402 2.14257z" fill="#ffa7a7" stroke-linecap="round" transform="matrix(.93263344 0 0 .93263344 11.370709 12.870132)"/></g><path d="m8.0956555 7.64257-3.7110401 2.14257-3.71104012-2.14257.00000002-4.28514 3.7110401-2.14257 3.7110402 2.14257z" fill="#cf0000" stroke="#f5ff00" stroke-linecap="round" stroke-width="1.4" transform="matrix(.93263344 0 0 .93263344 7.909668 6.875435)"/></svg>