<svg height="24" viewBox="0 0 24 24" width="24" xmlns="http://www.w3.org/2000/svg"><g stroke-linecap="round"><path d="m4.988811 4.913986h17.597202v17.710489h-17.597202z" fill="#cac8c8" stroke="#000" stroke-width=".8"/><g fill="#f8716e" stroke="#fff" stroke-width=".78692145"><path d="m.98324440547.98324500547h4.0588456216v4.0588456216h-4.0588456216z"/><path d="m5.33377347941.98324500547h4.0588456216v4.0588456216h-4.0588456216z"/><path d="m9.68430334028.98324500547h4.0588456216v4.0588456216h-4.0588456216z"/><path d="m14.03483162731.98324500547h4.0588456216v4.0588456216h-4.0588456216z"/><path d="m.98324440547 5.36794299569h4.0588456216v4.0588456216h-4.0588456216z"/><path d="m5.33377347941 5.36794299569h4.0588456216v4.0588456216h-4.0588456216z"/><path d="m9.68430334028 5.36794299569h4.0588456216v4.0588456216h-4.0588456216z"/><path d="m14.03483162731 5.36794299569h4.0588456216v4.0588456216h-4.0588456216z"/><path d="m.98324440547 9.752640199h4.0588456216v4.0588456216h-4.0588456216z"/><path d="m5.33377347941 9.752640199h4.0588456216v4.0588456216h-4.0588456216z"/><path d="m9.68430334028 9.752640199h4.0588456216v4.0588456216h-4.0588456216z"/><path d="m14.03483162731 9.752640199h4.0588456216v4.0588456216h-4.0588456216z"/><path d="m.98324440547 14.13733897615h4.0588456216v4.0588456216h-4.0588456216z"/><path d="m5.33377347941 14.13733897615h4.0588456216v4.0588456216h-4.0588456216z"/><path d="m9.68430334028 14.13733897615h4.0588456216v4.0588456216h-4.0588456216z"/><path d="m14.03483162731 14.13733897615h4.0588456216v4.0588456216h-4.0588456216z"/></g><path d="m.821256.936642h17.472872v17.472872h-17.472872z" fill="none" stroke="#000" stroke-width=".381513"/></g></svg>