<svg height="24" viewBox="0 0 24 24" width="24" xmlns="http://www.w3.org/2000/svg"><g fill="#f8716e" stroke="#fff" stroke-linecap="round" stroke-width=".25"><path d="m1.089784 1.089784h5.157879v5.157879h-5.157879z"/><path d="m6.618327 1.089784h5.157879v5.157879h-5.157879z"/><path d="m12.146871 1.089784h5.157879v5.157879h-5.157879z"/><path d="m17.675413 1.089784h5.157879v5.157879h-5.157879z"/><path d="m1.089784 6.661748h5.157879v5.157879h-5.157879z"/><path d="m6.618327 6.661748h5.157879v5.157879h-5.157879z"/><path d="m12.146871 6.661748h5.157879v5.157879h-5.157879z"/><path d="m17.675413 6.661748h5.157879v5.157879h-5.157879z"/><path d="m1.089784 12.233711h5.157879v5.157879h-5.157879z"/><path d="m6.618327 12.233711h5.157879v5.157879h-5.157879z"/><path d="m12.146871 12.233711h5.157879v5.157879h-5.157879z"/><path d="m17.675413 12.233711h5.157879v5.157879h-5.157879z"/><path d="m1.089784 17.805676h5.157879v5.157879h-5.157879z"/><path d="m6.618327 17.805676h5.157879v5.157879h-5.157879z"/><path d="m12.146871 17.805676h5.157879v5.157879h-5.157879z"/><path d="m17.675413 17.805676h5.157879v5.157879h-5.157879z"/></g></svg>