<svg height="24" viewBox="0 0 24 24" width="24" xmlns="http://www.w3.org/2000/svg"><g fill="#f8716e" stroke="#fff" stroke-width=".8" transform="translate(.176904 -6.230958)"><path d="m9.0781344 14.576569-2.5545723 1.459756.7298778 2.554572 3.2844501.729878 2.554572-1.459756-.729878-2.554572z"/><path d="m7.3848179 18.598196-2.5545722 1.459755.7298778 2.554572 3.28445.729878 2.5545725-1.459755-.729878-2.554573z"/><path d="m13.201944 17.733291-2.554573 1.459755.729878 2.554572 3.28445.729878 2.554572-1.459755-.729877-2.554573z"/><path d="m16.588577 9.6936864-2.554573 1.4597556.729878 2.554573 3.28445.729877 2.554572-1.459755-.729877-2.554573z"/><path d="m19.01542 16.872035-2.554572 1.459755.729878 2.554573 3.28445.729877 2.554572-1.459755-.729878-2.554572z"/><path d="m4.9579743 11.423497-2.5545722 1.459756.7298777 2.554572 3.2844501.729878 2.5545722-1.459756-.7298778-2.554572z"/><path d="m5.6915015 22.619822-2.5545723 1.459756.7298778 2.554572 3.28445.729878 2.5545723-1.459756-.7298778-2.554572z"/><path d="m11.504978 21.754917-2.5545722 1.459756.7298777 2.554572 3.2844495.729878 2.554573-1.459756-.729878-2.554572z"/><path d="m17.322104 20.890012-2.554573 1.459755.729878 2.554573 3.28445.729877 2.554572-1.459755-.729877-2.554572z"/><path d="m10.771451 10.558592-2.5545724 1.459755.7298778 2.554573 3.2844496.729878 2.554572-1.459756-.729877-2.554572z"/><path d="m14.89526 13.715313-2.554572 1.459756.729878 2.554572 3.28445.729878 2.554572-1.459756-.729878-2.554572z"/><path d="m3.2646578 15.441474-2.55457215 1.459756.72987775 2.554572 3.28445.729878 2.5545722-1.459756-.7298777-2.554572z"/></g></svg>